<?xml version="1.0" encoding="UTF-8"?>
<!DOCTYPE svg PUBLIC "-//W3C//DTD SVG 1.1//EN" "http://www.w3.org/Graphics/SVG/1.1/DTD/svg11.dtd">
<svg xmlns="http://www.w3.org/2000/svg" version="1.1" width="64px" height="64px" style="shape-rendering:geometricPrecision; text-rendering:geometricPrecision; image-rendering:optimizeQuality; fill-rule:evenodd; clip-rule:evenodd" xmlns:xlink="http://www.w3.org/1999/xlink">
<g><path style="opacity:0.843" fill="#040404" d="M 28.5,3.5 C 30.5273,3.33788 32.5273,3.50454 34.5,4C 41.1667,7 47.8333,10 54.5,13C 55.5536,14.3876 55.7203,15.8876 55,17.5C 47.4505,21.5254 39.6171,24.8588 31.5,27.5C 23.6254,24.8979 15.9587,21.7312 8.5,18C 7.16667,16.3333 7.16667,14.6667 8.5,13C 15.3789,10.0584 22.0456,6.89174 28.5,3.5 Z"/></g>
<g><path style="opacity:0.998" fill="#f8f8f8" d="M 30.5,7.5 C 36.5183,9.39622 42.185,12.0629 47.5,15.5C 42.4455,18.6939 37.1122,21.3606 31.5,23.5C 25.8878,21.3606 20.5545,18.6939 15.5,15.5C 20.4345,12.5352 25.4345,9.86851 30.5,7.5 Z"/></g>
<g><path style="opacity:0.916" fill="#020202" d="M 3.5,21.5 C 12.4525,23.5551 20.9525,26.8884 29,31.5C 29.4998,40.8274 29.6665,50.1607 29.5,59.5C 20.5475,57.4449 12.0475,54.1116 4,49.5C 3.50021,40.1726 3.33355,30.8393 3.5,21.5 Z"/></g>
<g><path style="opacity:0.916" fill="#020202" d="M 54.5,21.5 C 56.1667,21.5 57.8333,21.5 59.5,21.5C 59.6665,30.8393 59.4998,40.1726 59,49.5C 50.9525,54.1116 42.4525,57.4449 33.5,59.5C 33.3335,50.1607 33.5002,40.8274 34,31.5C 40.9706,28.2638 47.8039,24.9305 54.5,21.5 Z"/></g>
<g><path style="opacity:0.999" fill="#fcfcfc" d="M 7.5,26.5 C 13.3822,29.0238 19.2155,31.6905 25,34.5C 25.6667,41.1667 25.6667,47.8333 25,54.5C 19.3333,51.8333 13.6667,49.1667 8,46.5C 7.50042,39.8417 7.33375,33.175 7.5,26.5 Z"/></g>
<g><path style="opacity:0.999" fill="#fcfcfc" d="M 54.5,26.5 C 55.654,32.987 55.8206,39.6536 55,46.5C 49.3333,49.1667 43.6667,51.8333 38,54.5C 37.3333,47.8333 37.3333,41.1667 38,34.5C 43.637,31.9304 49.137,29.2637 54.5,26.5 Z"/></g>
</svg>
